<svg viewBox="0 0 11 11" width="11" height="11" xmlns="http://www.w3.org/2000/svg">
  <path d="M5.47,9.5a4.54,4.54,0,0,1-2.9-1,3.08,3.08,0,0,0,2.85-3,3.08,3.08,0,0,0-2.85-3,4.54,4.54,0,0,1,2.9-1,4.2,4.2,0,0,1,4.37,4A4.2,4.2,0,0,1,5.47,9.5Z" transform="translate(-1.34 0)"/>
  <path d="M5.47,2A3.7,3.7,0,0,1,9.34,5.5,3.7,3.7,0,0,1,5.47,9a4.15,4.15,0,0,1-1.65-.34A3.5,3.5,0,0,0,5.93,5.5,3.5,3.5,0,0,0,3.82,2.34,4.15,4.15,0,0,1,5.47,2m0-1A4.94,4.94,0,0,0,1.34,3.15,2.87,2.87,0,0,1,2.23,3a2.61,2.61,0,0,1,2.7,2.5A2.61,2.61,0,0,1,2.23,8a2.87,2.87,0,0,1-.89-.15A4.94,4.94,0,0,0,5.47,10a4.69,4.69,0,0,0,4.87-4.5A4.69,4.69,0,0,0,5.47,1Z" transform="translate(-1.34 0)"/>
</svg>
