<svg width="42" height="42" viewBox="0 0 42 42" xmlns="http://www.w3.org/2000/svg">
  <path fill-rule="evenodd" clip-rule="evenodd" d="M24.74 0.47L24.15 0.36H23.95C23.2883 0.248903 22.6204 0.178769 21.95 0.15H21.55C21.4004 0.134827 21.2497 0.134827 21.1 0.15H20.74C20.12 0 19.49 0 18.87 0C13.9156 0.0079335 9.16631 1.9796 5.66297 5.48294C2.15963 8.98627 0.187969 13.7355 0.180036 18.69C0.177923 19.3111 0.20796 19.932 0.270032 20.55V20.68C0.267922 24.5867 1.3773 28.4134 3.46862 31.7132C5.55994 35.0131 8.54689 37.6498 12.0807 39.3156C15.6144 40.9814 19.5492 41.6074 23.4255 41.1207C27.3017 40.6339 30.9595 39.0544 33.9717 36.5666C36.9839 34.0788 39.2262 30.7854 40.4367 27.0709C41.6472 23.3565 41.776 19.3743 40.808 15.5894C39.84 11.8045 37.8152 8.37313 34.97 5.69592C32.1249 3.01871 28.5768 1.20619 24.74 0.47ZM20.82 39.27C15.8913 39.2647 11.1659 37.3044 7.68077 33.8193C4.19561 30.3341 2.23533 25.6087 2.23003 20.68H1.23003L2.23003 20.54V20.42C1.97156 17.9459 2.26942 15.4453 3.1018 13.1011C3.93419 10.7569 5.28005 8.62844 7.04095 6.87138C8.80185 5.11431 10.9333 3.77308 13.2792 2.94581C15.6252 2.11854 18.1265 1.82614 20.6 2.09H21.93C22.51 2.09 23.1 2.18 23.69 2.27H23.87L24.37 2.36C28.9073 3.2399 32.9542 5.77842 35.7212 9.48042C38.4882 13.1824 39.777 17.7824 39.3361 22.3832C38.8953 26.9839 36.7564 31.2555 33.3368 34.3647C29.9171 37.4739 25.4619 39.1977 20.84 39.2L20.82 39.27ZM22.4799 2.53004C19.9298 2.53651 17.4231 3.19045 15.1947 4.43054C12.9664 5.67063 11.0895 7.45627 9.73992 9.62004C8.45677 11.4101 7.69836 13.5226 7.54992 15.72C7.46613 16.3466 7.42271 16.9779 7.41992 17.61V18V18.3V18.69C7.42257 22.4261 8.90789 26.0084 11.5497 28.6502C14.1915 31.2921 17.7738 32.7774 21.5099 32.78C22.1056 32.7797 22.7005 32.7363 23.2899 32.65C27.2155 32.4476 30.9067 30.7194 33.576 27.834C36.2454 24.9486 37.6818 21.1344 37.5787 17.2049C37.4757 13.2754 35.8413 9.54177 33.0244 6.80026C30.2074 4.05874 26.4307 2.52639 22.4999 2.53004H22.4799ZM29.3099 15.43V15.98V16.28V16.53C29.2281 19.1078 28.1466 21.5526 26.2942 23.3471C24.4418 25.1415 21.964 26.145 19.3849 26.145C16.8059 26.145 14.328 25.1415 12.4756 23.3471C10.6233 21.5526 9.54176 19.1078 9.45992 16.53V15.92C9.70258 14.0787 10.3331 12.3097 11.3099 10.73C12.2277 9.46413 13.4295 8.43106 14.8189 7.7138C16.2082 6.99655 17.7464 6.61508 19.3099 6.60004H19.7399H19.8299C20.2268 6.53599 20.6279 6.50256 21.0299 6.50004C23.2065 6.50268 25.2932 7.36851 26.8323 8.90761C28.3714 10.4467 29.2373 12.5334 29.2399 14.71V15.27V15.42L29.3099 15.43ZM23.0899 30.66C22.5598 30.7351 22.0253 30.7752 21.4899 30.78C19.4854 30.7802 17.5125 30.2811 15.7491 29.3279C13.9858 28.3746 12.4877 26.9972 11.3899 25.32C13.0932 26.8846 15.2156 27.9189 17.4974 28.2964C19.7792 28.674 22.1215 28.3784 24.238 27.4459C26.3545 26.5134 28.1534 24.9843 29.4147 23.0457C30.676 21.107 31.345 18.8429 31.3399 16.53V16.21V15.98V15.33V14.72C31.3335 12.1567 30.365 9.68912 28.6261 7.80577C26.8872 5.92241 24.5046 4.76051 21.9499 4.55004H22.4799C25.9126 4.52088 29.2189 5.84336 31.6845 8.23175C34.1502 10.6201 35.5773 13.8827 35.6574 17.3145C35.7375 20.7464 34.4642 24.072 32.1127 26.5728C29.7612 29.0737 26.5202 30.549 23.0899 30.68V30.66ZM16.7632 10.5346C18.0558 9.67094 19.5755 9.20996 21.13 9.20996C23.2138 9.21261 25.2115 10.0416 26.685 11.515C28.1584 12.9885 28.9874 14.9862 28.99 17.07C28.99 18.6245 28.529 20.1442 27.6654 21.4367C26.8017 22.7293 25.5741 23.7367 24.1379 24.3317C22.7017 24.9266 21.1213 25.0822 19.5966 24.7789C18.0719 24.4757 16.6714 23.7271 15.5722 22.6278C14.4729 21.5286 13.7243 20.1281 13.4211 18.6034C13.1178 17.0787 13.2734 15.4983 13.8683 14.0621C14.4632 12.6258 15.4707 11.3983 16.7632 10.5346ZM23.44 15.67C23.7751 15.4326 24.0381 15.1073 24.2 14.73C24.3069 14.5455 24.3729 14.3402 24.3936 14.128C24.4143 13.9158 24.3892 13.7016 24.32 13.5C23.9779 13.7323 23.7105 14.0588 23.55 14.44C23.4436 14.6247 23.3786 14.8305 23.3596 15.0428C23.3406 15.2552 23.368 15.4692 23.44 15.67ZM18.6008 22.3624C19.3909 22.738 20.2551 22.9319 21.13 22.93C22.6782 22.9194 24.1595 22.2977 25.2514 21.2001C26.3433 20.1026 26.9574 18.6181 26.96 17.07C26.9619 16.1449 26.7424 15.2329 26.32 14.41C26.2648 14.8026 26.1572 15.186 26 15.55C25.7091 16.2156 25.2424 16.7895 24.65 17.21C24.2612 17.4786 23.8025 17.628 23.33 17.64C23.061 17.6386 22.7952 17.5807 22.55 17.47C22.078 17.2336 21.7185 16.8202 21.55 16.32C21.2576 15.4298 21.3258 14.4604 21.74 13.62C22.0219 12.9546 22.4822 12.3801 23.07 11.96C23.2138 11.8656 23.3682 11.7884 23.53 11.73C22.7328 11.3697 21.865 11.1925 20.9903 11.2113C20.1156 11.2302 19.2562 11.4447 18.4753 11.8391C17.6943 12.2335 17.0115 12.7977 16.4771 13.4904C15.9427 14.1831 15.5702 14.9867 15.3868 15.8421C15.2035 16.6976 15.2141 17.5833 15.4178 18.4341C15.6214 19.285 16.013 20.0794 16.5638 20.7592C17.1146 21.4389 17.8106 21.9867 18.6008 22.3624Z"/>
</svg>
