<svg width="46" height="40" viewBox="0 0 46 40" xmlns="http://www.w3.org/2000/svg">
    <path fill-rule="evenodd" clip-rule="evenodd" d="M41.91 39.21H4.66999C3.62677 39.2074 2.62718 38.7911 1.89045 38.0525C1.15372 37.3139 0.739987 36.3132 0.73999 35.27V4.19001C0.74263 3.14852 1.15753 2.15044 1.89398 1.414C2.63042 0.67755 3.6285 0.26265 4.66999 0.26001H41.91C42.9484 0.275431 43.9401 0.694125 44.6754 1.42755C45.4107 2.16097 45.8319 3.15163 45.85 4.19001V35.27C45.8345 36.3101 45.4144 37.3033 44.6789 38.0389C43.9433 38.7744 42.9501 39.1945 41.91 39.21ZM2.73999 35.27V8.00001H43.85V35.27C43.85 35.7845 43.6456 36.278 43.2818 36.6418C42.918 37.0056 42.4245 37.21 41.91 37.21H4.66999C4.15721 37.2074 3.66632 37.0018 3.30466 36.6383C2.943 36.2747 2.73998 35.7828 2.73999 35.27ZM8.23005 4.50992C8.23005 5.38805 7.51818 6.09992 6.64005 6.09992C5.76192 6.09992 5.05005 5.38805 5.05005 4.50992C5.05005 3.63179 5.76192 2.91992 6.64005 2.91992C7.51818 2.91992 8.23005 3.63179 8.23005 4.50992ZM11.7399 6.09992C12.618 6.09992 13.3299 5.38805 13.3299 4.50992C13.3299 3.63179 12.618 2.91992 11.7399 2.91992C10.8618 2.91992 10.1499 3.63179 10.1499 4.50992C10.1499 5.38805 10.8618 6.09992 11.7399 6.09992ZM39.86 31.6401H30.93V30.3701C30.93 28.3332 30.1208 26.3798 28.6806 24.9395C28.4533 24.7122 28.2133 24.5007 27.9621 24.3056C26.6645 27.5085 25.4239 30.5278 25.1699 31C24.8804 31.4659 24.4216 31.8015 23.8899 31.9362C23.3582 32.0709 22.7949 31.9943 22.3185 31.7224C21.8421 31.4505 21.4896 31.0046 21.3351 30.4783C21.1806 29.952 21.2361 29.3863 21.4899 28.9C21.7477 28.4556 23.7103 25.8678 25.8113 23.1298C24.9963 22.8414 24.1309 22.6901 23.25 22.6901C21.2131 22.6901 19.2597 23.4992 17.8194 24.9395C16.3791 26.3798 15.57 28.3332 15.57 30.3701L15.62 31.5801L14.62 31.6401H6.73999V30.3701C6.84631 26.0394 8.64137 21.9217 11.742 18.8964C14.8425 15.871 19.0029 14.1775 23.335 14.1775C26.1029 14.1775 28.8007 14.8688 31.1967 16.1572L31.2799 16.05L31.23 16.1751C32.5714 16.9003 33.8177 17.8129 34.928 18.8964C38.0286 21.9217 39.8237 26.0394 39.93 30.3701L39.86 31.6401ZM29.8894 23.249C29.5326 22.917 29.1534 22.6143 28.7555 22.3425C29.4453 20.632 30.0967 19.008 30.565 17.8384C31.5513 18.4041 32.4753 19.0874 33.3153 19.8796C36.0228 22.4331 37.6522 25.9247 37.87 29.6401H32.95C32.7742 27.1995 31.6807 24.916 29.8894 23.249ZM30.0936 17.5793C29.3176 18.5808 28.2411 19.9722 27.1111 21.4393C25.9156 20.9265 24.6186 20.6553 23.295 20.6553C20.848 20.6553 18.4919 21.582 16.7006 23.249C14.9093 24.916 13.8157 27.1995 13.64 29.6401H8.73999C8.95777 25.9247 10.5871 22.4331 13.2947 19.8796C16.0022 17.3261 19.5833 15.9038 23.305 15.9038C25.6899 15.9038 28.017 16.4879 30.0936 17.5793Z"/>
</svg>
