<svg xmlns="http://www.w3.org/2000/svg">
  <symbol id="icon-logo" viewBox="0 0 120 27">
    <path d="M40.8945 0.0551758L33.3 13.7613L32.1449 16.3527L32.3906 14.0111L32.3801 0.0551758H26.5732V26.9792H26.5941V26.9958H31.9045L39.5042 13.0122L40.5652 10.5984L40.377 12.7625L40.3875 26.9958H46.1944L46.1735 0.0551758H40.8945Z"/>
    <path d="M11.5824 0.0544434L8.76001 0.0599894L0 26.9951H5.84872L11.4675 7.73988L17.0496 26.9951H23.1649L14.3944 0.0544434H11.5824Z"/>
    <path d="M69.003 0.0551758H52.5127V6.22018V26.9792H58.3562V6.22018H69.003V0.0551758Z"/>
    <path d="M85.263 26.996H91.3783L82.6026 0.0498047H79.7906L76.9682 0.0553549L68.2134 26.996H74.0569L75.5465 21.8964H83.7838L85.263 26.996ZM77.0257 16.8301L79.6808 7.74079L82.3151 16.8301H77.0257Z"/>
    <path d="M99.606 0.0217285V20.076L109.464 26.9069L119.321 20.076V0.0217285H99.606Z"/>
    <path class="logo__letter" d="M115.156 15.3595C115.349 15.3595 115.564 15.3373 115.778 15.2652L115.757 17.4959C115.229 17.6846 114.555 17.8289 113.907 17.8233C112.731 17.8122 111.847 17.3628 111.377 16.4749C110.243 17.3683 108.92 17.8955 107.216 17.8844C105.058 17.8622 103.197 16.5748 103.218 14.2442C103.244 11.2532 106.009 10.3487 108.314 10.3709C109.223 10.382 110.232 10.5097 111.042 10.715L111.048 10.2988C111.058 9.12241 110.154 8.3067 108.356 8.29005C106.772 8.2734 105.356 8.70623 104.274 9.13351L104.3 6.19251C105.235 5.88176 106.992 5.43229 108.769 5.44894C112.224 5.48223 114.414 6.94718 114.382 10.8204L114.351 14.5716C114.34 15.182 114.722 15.354 115.156 15.3595ZM106.187 14.05C106.176 15.0211 107.044 15.6481 108.152 15.6592C109.182 15.6703 110.159 15.3817 111.011 14.6326L111.027 12.6128C110.473 12.474 109.631 12.302 108.868 12.2965C107.525 12.2798 106.202 12.7293 106.187 14.05Z"/>
  </symbol>
  <symbol id="icon-logo-text" viewBox="0 0 79 24">
    <path d="M4.65031 8.57847H4.0778C3.42997 8.57847 2.85747 8.48431 2.35026 8.29598C1.84806 8.10765 1.41619 7.84869 1.06967 7.51911C0.72316 7.18953 0.451977 6.80345 0.271188 6.35146C0.0903989 5.89946 0 5.4051 0 4.87306C0 4.34573 0.0954153 3.85608 0.281227 3.39937C0.467038 2.94267 0.738214 2.55188 1.08975 2.22231C1.44128 1.89273 1.86816 1.63848 2.37538 1.44544C2.88259 1.25711 3.45509 1.16294 4.09789 1.16294H4.66035V0H5.50402V1.16294H6.06648C6.70928 1.16294 7.28682 1.25711 7.78901 1.44544C8.29622 1.63377 8.72309 1.89273 9.07462 2.22231C9.42616 2.55188 9.69231 2.94267 9.88314 3.39937C10.074 3.85608 10.1644 4.34573 10.1644 4.87306C10.1644 5.4051 10.069 5.89946 9.88314 6.35146C9.69733 6.80345 9.42616 7.19424 9.07462 7.51911C8.72309 7.84398 8.29622 8.10294 7.78901 8.29598C7.28682 8.48431 6.70928 8.57847 6.06648 8.57847H5.50402V9.74142H4.66035V8.57847H4.65031ZM4.66537 7.91931V1.80797H4.08784C3.59067 1.80797 3.14874 1.88331 2.75703 2.02926C2.36532 2.17522 2.02885 2.37297 1.75265 2.6178C1.47644 2.86263 1.26553 3.14984 1.11487 3.47C0.96421 3.79487 0.888875 4.12916 0.888875 4.47286V5.27326C0.888875 5.61697 0.96421 5.95126 1.11487 6.26671C1.26553 6.58687 1.47645 6.86937 1.74764 7.1142C2.01882 7.35903 2.35026 7.55678 2.74197 7.70273C3.13368 7.84869 3.58062 7.92402 4.07277 7.92402H4.66537V7.91931ZM6.05141 7.91931C6.53854 7.91931 6.98048 7.84398 7.37721 7.69802C7.77394 7.55207 8.11041 7.35432 8.38662 7.10949C8.66283 6.86466 8.87374 6.58217 9.0244 6.262C9.17506 5.94184 9.25038 5.61226 9.25038 5.26856V4.46815C9.25038 4.12445 9.17506 3.79016 9.0244 3.46529C8.87374 3.14042 8.66283 2.85792 8.38662 2.61309C8.11041 2.36826 7.77394 2.17052 7.37721 2.02456C6.98048 1.8786 6.53854 1.80327 6.05141 1.80327H5.47892V7.91461H6.05141V7.91931Z" fill="white"/>
  <path d="M12.9966 9.36894V0.3479H16.8384C17.6871 0.3479 18.3399 0.573898 18.7869 1.02589C19.2338 1.47789 19.4598 2.08996 19.4598 2.86682C19.4598 3.6531 19.2338 4.26989 18.7869 4.72188C18.3399 5.17387 17.6871 5.39987 16.8384 5.39987H13.8352V9.36894H12.9966ZM13.8352 4.71717H16.8384C17.4008 4.71717 17.8277 4.57121 18.1189 4.28401C18.4152 3.99681 18.5609 3.62485 18.5609 3.17757V2.55608C18.5609 2.11821 18.4152 1.75096 18.1189 1.46376C17.8226 1.17656 17.3958 1.0306 16.8384 1.0306H13.8352V4.71717Z" fill="white"/>
  <path d="M25.6315 9.52246C24.376 9.52246 23.3968 9.12696 22.6887 8.34068C21.9756 7.5544 21.624 6.39146 21.624 4.85657C21.624 3.32167 21.9806 2.16344 22.6887 1.37245C23.4018 0.586169 24.3811 0.190674 25.6315 0.190674C26.877 0.190674 27.8512 0.586171 28.5643 1.38187C29.2774 2.17756 29.629 3.33109 29.629 4.85657C29.629 6.38204 29.2724 7.54027 28.5643 8.33126C27.8512 9.12696 26.877 9.52246 25.6315 9.52246ZM25.6315 8.83505C26.0986 8.83505 26.5204 8.75972 26.9021 8.60905C27.2787 8.45839 27.6051 8.2371 27.8763 7.94048C28.1475 7.64857 28.3584 7.28603 28.5091 6.86229C28.6597 6.43854 28.7351 5.9583 28.7351 5.42156V4.28216C28.7351 3.74541 28.6597 3.26517 28.5091 2.84143C28.3584 2.41769 28.1475 2.05985 27.8763 1.77265C27.6051 1.48074 27.2787 1.25945 26.9021 1.10408C26.5254 0.948705 26.0986 0.868665 25.6315 0.868665C25.1645 0.868665 24.7376 0.948705 24.356 1.10408C23.9743 1.25945 23.6428 1.48074 23.3717 1.77265C23.1005 2.06456 22.8896 2.41769 22.7389 2.84143C22.5882 3.26517 22.5129 3.74541 22.5129 4.28216V5.42156C22.5129 5.9583 22.5882 6.43854 22.7389 6.86229C22.8896 7.28603 23.1005 7.64386 23.3717 7.94048C23.6428 8.23239 23.9693 8.45839 24.356 8.60905C24.7376 8.75972 25.1645 8.83505 25.6315 8.83505Z" fill="white"/>
  <path d="M38.8148 5.1315H33.4413V9.36894H32.5977V0.3479H33.4413V4.44409H38.8148V0.3479H39.6585V9.36894H38.8148V5.1315Z" fill="white"/>
  <path d="M46.1469 1.0306V9.36423H45.3083V1.0306H42.0239V0.3479H49.4313V1.0306H46.1469Z" fill="white"/>
  <path d="M51.8013 9.36895V0.3479H57.5213V1.0306H52.6399V4.4441H57.2802V5.1315H52.6399V8.68625H57.5213V9.37365H51.8013V9.36895Z" fill="white"/>
  <path d="M66.7665 5.1315H61.393V9.36894H60.5493V0.3479H61.393V4.44409H66.7665V0.3479H67.6101V9.36894H66.7665V5.1315Z" fill="white"/>
  <path d="M69.8351 8.68153H70.8445C71.2764 8.11183 71.6028 7.36322 71.8338 6.42627C72.0648 5.48933 72.1753 4.31697 72.1753 2.90449V0.3479H77.6844V8.68153H79.0001V11.304H78.2167V9.36423H70.6135V11.304H69.8301V8.68153H69.8351ZM76.8457 8.68153V1.0306H72.9889V2.94216C72.9889 4.36405 72.8834 5.53641 72.6725 6.46394C72.4616 7.39147 72.1854 8.11183 71.8388 8.62974V8.68153H76.8457Z" fill="white"/>
  <path d="M7.48234 23.2515L6.4177 20.4454H2.25452L1.18987 23.2515H0.346191L3.81132 14.2305H4.89103L8.37122 23.2515H7.48234ZM4.35368 14.965H4.29844L2.46042 19.758H6.1917L4.35368 14.965Z" fill="white"/>
  <path d="M11.0323 22.566H12.4083L12.9708 21.276L9.28467 14.2324H10.1987L12.6795 18.9878L13.3223 20.3202H13.3775L13.9249 18.9642L15.9739 14.2324H16.8427L13.267 22.453C13.1264 22.7732 12.9607 22.9851 12.7749 23.0934C12.5891 23.2017 12.3129 23.2535 11.9463 23.2535H11.0323V22.566Z" fill="white"/>
  <path d="M22.3915 14.9151V23.2487H21.5529V14.9151H18.2686V14.2324H25.6759V14.9151H22.3915Z" fill="white"/>
  <path d="M31.1002 23.4054C29.8849 23.4054 28.9458 23.0147 28.2829 22.2378C27.62 21.4562 27.2886 20.3027 27.2886 18.7678C27.2886 17.2423 27.62 16.0794 28.2829 15.279C28.9458 14.4786 29.8849 14.0784 31.1002 14.0784C31.8836 14.0784 32.5465 14.2479 33.0839 14.5869C33.6212 14.9259 34.038 15.392 34.3394 15.9899L33.6514 16.3666C33.4354 15.8769 33.109 15.4861 32.6771 15.1989C32.2402 14.9117 31.7179 14.7658 31.1002 14.7658C30.1812 14.7658 29.4681 15.0671 28.9559 15.6745C28.4436 16.2818 28.1825 17.1434 28.1825 18.2687V19.2951C28.1825 20.411 28.4386 21.2632 28.9559 21.847C29.4681 22.4355 30.1862 22.7274 31.1002 22.7274C31.7531 22.7274 32.3005 22.5721 32.7424 22.2707C33.1843 21.9647 33.5107 21.5551 33.7217 21.0372L34.4097 21.4138C34.1184 22.0353 33.6966 22.525 33.1341 22.8828C32.5716 23.2312 31.8937 23.4054 31.1002 23.4054Z" fill="white"/>
  <path d="M40.4513 23.4048C39.1959 23.4048 38.2166 23.0093 37.5085 22.223C36.7954 21.4367 36.4438 20.2738 36.4438 18.7389C36.4438 17.204 36.8004 16.0458 37.5085 15.2548C38.2216 14.4685 39.2009 14.073 40.4513 14.073C41.6968 14.073 42.671 14.4685 43.3841 15.2642C44.0973 16.0599 44.4488 17.2134 44.4488 18.7389C44.4488 20.2644 44.0922 21.4226 43.3841 22.2136C42.676 23.0093 41.6968 23.4048 40.4513 23.4048ZM40.4513 22.7221C40.9184 22.7221 41.3402 22.6468 41.7219 22.4961C42.0985 22.3454 42.425 22.1241 42.6961 21.8275C42.9673 21.5356 43.1782 21.1731 43.3289 20.7493C43.4796 20.3256 43.5549 19.8453 43.5549 19.3086V18.1692C43.5549 17.6324 43.4796 17.1522 43.3289 16.7285C43.1782 16.3047 42.9673 15.9469 42.6961 15.6597C42.425 15.3678 42.0985 15.1465 41.7219 14.9911C41.3452 14.8357 40.9184 14.7557 40.4513 14.7557C39.9843 14.7557 39.5574 14.8357 39.1758 14.9911C38.7941 15.1465 38.4627 15.3678 38.1915 15.6597C37.9203 15.9516 37.7094 16.3047 37.5587 16.7285C37.4081 17.1522 37.3327 17.6324 37.3327 18.1692V19.3086C37.3327 19.8453 37.4081 20.3256 37.5587 20.7493C37.7094 21.1731 37.9203 21.5309 38.1915 21.8275C38.4627 22.1194 38.7891 22.3454 39.1758 22.4961C39.5625 22.6468 39.9843 22.7221 40.4513 22.7221Z" fill="white"/>
  <path d="M47.4209 23.2535V14.2324H51.2627C52.1114 14.2324 52.7642 14.4584 53.2112 14.9104C53.6581 15.3624 53.8841 15.9745 53.8841 16.7513C53.8841 17.5376 53.6581 18.1544 53.2112 18.6064C52.7642 19.0584 52.1114 19.2844 51.2627 19.2844H48.2596V23.2535H47.4209ZM48.2646 18.597H51.2677C51.8302 18.597 52.257 18.451 52.5483 18.1638C52.8446 17.8766 52.9902 17.5047 52.9902 17.0574V16.4359C52.9902 15.998 52.8446 15.6308 52.5483 15.3436C52.252 15.0564 51.8251 14.9104 51.2677 14.9104H48.2646V18.597Z" fill="white"/>
  <path d="M59.8615 23.4054C58.6462 23.4054 57.707 23.0147 57.0442 22.2378C56.3813 21.4562 56.0498 20.3027 56.0498 18.7678C56.0498 17.2423 56.3813 16.0794 57.0442 15.279C57.707 14.4786 58.6462 14.0784 59.8615 14.0784C60.6449 14.0784 61.3078 14.2479 61.8451 14.5869C62.3825 14.9259 62.7993 15.392 63.1006 15.9899L62.4126 16.3666C62.1967 15.8769 61.8702 15.4861 61.4383 15.1989C61.0014 14.9117 60.4792 14.7658 59.8615 14.7658C58.9425 14.7658 58.2293 15.0671 57.7171 15.6745C57.2049 16.2818 56.9437 17.1434 56.9437 18.2687V19.2951C56.9437 20.411 57.1998 21.2632 57.7171 21.847C58.2293 22.4355 58.9475 22.7274 59.8615 22.7274C60.5143 22.7274 61.0617 22.5721 61.5036 22.2707C61.9456 21.9647 62.272 21.5551 62.4829 21.0372L63.1709 21.4138C62.8796 22.0353 62.4578 22.525 61.8953 22.8828C61.3379 23.2312 60.66 23.4054 59.8615 23.4054Z" fill="white"/>
  </symbol>
  <symbol id="icon-rays" viewBox="0 0 11 11">
    <path d="M9 5.5h2M0 5.5h2M5.5 0v2M8.5 2v1M2.5 2v1M2.5 8v1M8.5 8v1M5.5 9v2"/>
  </symbol>
  <symbol id="icon-sun" viewBox="0 0 11 11">
    <circle cx="5.5" cy="5.5" r="2"/>
  </symbol>
  <symbol id="icon-moon" viewBox="0 0 11 11">
    <path d="M5.47,9.5a4.54,4.54,0,0,1-2.9-1,3.08,3.08,0,0,0,2.85-3,3.08,3.08,0,0,0-2.85-3,4.54,4.54,0,0,1,2.9-1,4.2,4.2,0,0,1,4.37,4A4.2,4.2,0,0,1,5.47,9.5Z" transform="translate(-1.34 0)"/>
    <path d="M5.47,2A3.7,3.7,0,0,1,9.34,5.5,3.7,3.7,0,0,1,5.47,9a4.15,4.15,0,0,1-1.65-.34A3.5,3.5,0,0,0,5.93,5.5,3.5,3.5,0,0,0,3.82,2.34,4.15,4.15,0,0,1,5.47,2m0-1A4.94,4.94,0,0,0,1.34,3.15,2.87,2.87,0,0,1,2.23,3a2.61,2.61,0,0,1,2.7,2.5A2.61,2.61,0,0,1,2.23,8a2.87,2.87,0,0,1-.89-.15A4.94,4.94,0,0,0,5.47,10a4.69,4.69,0,0,0,4.87-4.5A4.69,4.69,0,0,0,5.47,1Z" transform="translate(-1.34 0)"/>
  </symbol>
  <symbol id="icon-dragon" viewBox="0 0 190 215">
    <path class="block-title__image-path" d="M121.174 87.2449L75.6128 149.77L106.633 165.765L118.266 144.439L131.837 130.383L157.041 128.929L165.281 122.628L166.735 110.995L121.174 87.2449Z"/>
    <path fill-rule="evenodd" clip-rule="evenodd" d="M110.892 168.327L105.98 166.603C113.214 145.773 113.656 140.228 113.664 139.262L112.978 137.473L131.943 126.729H152.429C160.05 126.134 162.529 124.007 162.847 117.638L168.041 117.897C167.474 129.279 159.931 131.387 152.627 131.952L133.307 131.958L118.802 140.176C118.354 145.83 114.432 158.137 110.892 168.327Z"/>
    <path class="block-title__image-flag" fill-rule="evenodd" clip-rule="evenodd" d="M179.498 13.3896L80.3725 13.9788L60.4387 37.5723L72.2655 53.1206H54.7779L40.1011 65.0355H81.3253V64.9351L97.3016 50.2772L88.1654 39.8371H152.158L179.498 13.3896Z"/>
    <path class="block-title__image-path" fill-rule="evenodd" clip-rule="evenodd" d="M39.1465 148.243L178.543 11.4768L39.1465 148.243Z"/>
    <path fill-rule="evenodd" clip-rule="evenodd" d="M40.8869 150.155L37.2368 146.434L176.803 9.56396L180.453 13.2853L40.8869 150.155Z"/>
    <path class="block-title__image-path" fill-rule="evenodd" clip-rule="evenodd" d="M58.676 98.5098L66.487 108.212L68.7441 120.432L67.6156 124.981L53.7761 132.94L48.6938 108.212L58.676 98.5098Z"/>
    <path fill-rule="evenodd" clip-rule="evenodd" d="M52.4567 108.384L56.5832 128.59L66.5065 122.846L67.244 119.862L65.1834 108.637L59.4843 101.51L52.4567 108.384ZM52.942 136.766L46.7847 106.609L59.9534 93.7275L70.0529 106.359L72.5636 120.024L71.0127 126.302L52.942 136.766Z"/>
    <path class="block-title__image-path" fill-rule="evenodd" clip-rule="evenodd" d="M123.167 100.423L125.945 116.681L139.398 102.936"/>
    <path fill-rule="evenodd" clip-rule="evenodd" d="M124.958 123.376L121.257 101.333L126.388 100.423L128.367 112.212L138.558 101.608L142.262 105.376L124.958 123.376Z"/>
    <path class="block-title__image-path" fill-rule="evenodd" clip-rule="evenodd" d="M64.3865 179.804L56.332 211.366H99.2969"/>
    <path fill-rule="evenodd" clip-rule="evenodd" d="M98.3423 214.235H52.5132L61.2981 179.804L66.3421 181.072L59.1985 209.071H98.3423V214.235Z"/>
    <path class="block-title__image-path" fill-rule="evenodd" clip-rule="evenodd" d="M118.207 94.8899L124.012 100.859L140.589 103.711L144.655 116.559L158.052 108.731L164.183 122.774L175.418 113.039L178.084 108.878L181.408 103.695V72.9587L132.941 62.6489L102.659 62.1663C102.659 62.1663 77.9082 62.1663 76.7443 93.1911V127.526L55.5181 147.551L39.8968 148.727L3.81982 147.486L5.56697 158.09C21.994 170.412 40.746 178.282 60.2224 179.253L81.2261 189.205L76.8447 211.365H133.152L133.182 207.81C133.182 201.557 132.431 194.067 123.616 193.68H104.164C104.164 193.68 111.123 177.199 110.049 170.868C104.937 140.748 82.6966 148.14 82.6966 148.14"/>
    <path fill-rule="evenodd" clip-rule="evenodd" d="M134.805 214.235H72.8372L77.4345 191.034L58.7579 182.203C39.9025 181.146 20.7274 173.692 3.27261 160.625L2.43549 160L0 145.256L39.0546 146.598L53.5971 145.506L73.3031 126.949V93.8631C74.5466 60.72 101.508 60.3396 101.781 60.3396L132.557 60.8749L183.014 71.5866V105.096L176.133 115.615L162.249 127.618L155.885 113.069L142.223 121.036L137.658 106.645L121.834 103.928L115.449 97.3766L119.163 93.7327L124.37 99.0776L141.651 102.045L145.211 113.265L158.304 105.629L164.183 119.066L172.457 111.914L177.818 103.561V75.812L131.728 66.0269L101.738 65.5487C100.882 65.5568 79.5477 66.0297 78.4965 93.9609L78.4992 129.205L55.8131 150.563L39.1602 151.815L6.16323 150.682L7.21707 157.071C23.7752 169.25 41.8449 176.143 59.5327 177.027L60.0475 177.051L83.3214 188.056L79.1657 209.023H129.655L129.664 208.064C129.664 199.838 127.813 196.836 122.595 196.608L99.3594 196.61L100.89 192.988C103.464 186.904 107.286 175.749 106.598 171.709C104.997 162.277 101.513 155.883 96.2466 152.709C89.7746 148.807 82.7336 151.073 82.6604 151.095L81.0322 146.147C81.4088 146.022 90.4302 143.123 98.9232 148.242C105.544 152.236 109.852 159.837 111.721 170.831C112.593 175.959 109.202 185.942 107.121 191.398H122.709C134.86 191.928 134.86 203.667 134.86 208.085L134.805 214.235Z"/>
    <path class="block-title__image-path" fill-rule="evenodd" clip-rule="evenodd" d="M164.222 88.9456L161.557 83.2617L131.759 75.5559"/>
    <path fill-rule="evenodd" clip-rule="evenodd" d="M161.378 89.9021L159.234 85.1985L130.805 77.6362L132.165 72.6868L162.978 80.8832L166.131 87.8066L161.378 89.9021Z"/>
    <path class="block-title__image-path" fill-rule="evenodd" clip-rule="evenodd" d="M101.396 137.38L111.338 152.039L126.796 151.523L125.813 161.604C137.648 162.012 140.112 158.108 141.277 148.954L143.217 138.441L120.071 137.584L114.699 127.79L88.7944 116.681"/>
    <path fill-rule="evenodd" clip-rule="evenodd" d="M127.17 164.502C126.655 164.502 126.126 164.494 125.578 164.472L122.808 164.381L123.763 154.743L109.933 155.197L99.2418 139.737L103.533 136.824L112.61 149.95L129.522 149.399L128.535 159.333C136.388 159.078 137.571 156.097 138.461 149.236L139.863 141.78L118.391 141L112.773 130.954L87.8398 120.472L89.8717 115.725L116.457 126.903L121.519 135.956L146.081 136.848L143.599 150.036C142.4 159.312 139.356 164.502 127.17 164.502Z"/>
    <path class="block-title__image-path" fill-rule="evenodd" clip-rule="evenodd" d="M100.931 72.6868C99.8975 74.1572 99.2969 75.9276 99.2969 77.8333C99.2969 82.9161 103.57 87.0328 108.846 87.0328C114.116 87.0328 118.392 82.9161 118.392 77.8333C118.392 76.477 118.07 75.2003 117.522 74.0431L100.931 72.6868Z"/>
    <path fill-rule="evenodd" clip-rule="evenodd" d="M102.313 75.3009C101.982 76.1026 101.813 76.9615 101.813 77.8394C101.813 81.6077 104.966 84.6751 108.846 84.6751C112.723 84.6751 115.876 81.6077 115.876 77.8394C115.876 77.3595 115.82 76.8797 115.711 76.4052L102.313 75.3009ZM108.846 89.9021C102.001 89.9021 96.4326 84.4925 96.4326 77.8394C96.4326 75.4209 97.1676 73.0869 98.559 71.0882L99.4427 69.8176L119.478 71.47L120.132 72.8633C120.878 74.4611 121.257 76.1353 121.257 77.8394C121.257 84.4925 115.688 89.9021 108.846 89.9021Z"/>
    <path class="block-title__image-path" fill-rule="evenodd" clip-rule="evenodd" d="M41.0557 81.0181C41.0557 81.0181 36.7579 72.9847 31.4067 70.5297C25.5847 67.8583 23.5188 67.9048 23.5188 67.9048L25.0403 73.4998L24.134 73.0148C20.1192 70.864 15.1355 72.2504 12.7866 76.1712L16.7768 77.1164C13.4861 80.0728 11.363 84.1251 10.7996 88.5309L10.5029 90.8351H14.6211L15.5166 111.899L23.2929 92.2955L28.0534 81.0181H41.0557Z"/>
    <path fill-rule="evenodd" clip-rule="evenodd" d="M29.3847 78.0825H36.2424C34.6477 75.9944 32.5877 73.7999 30.5005 72.8485C29.3902 72.3415 28.435 71.9435 27.6213 71.63L29.3847 78.0825ZM13.8433 87.85H17.4517L17.9171 98.7324L20.9949 91.0149L26.4783 78.0825H28.4078L23.0821 75.2474C21.8712 74.6014 20.5296 74.4242 19.2777 74.6613L22.7093 75.471L18.8151 78.9549C16.2081 81.2856 14.4637 84.4206 13.8433 87.85ZM13.5684 124.333L12.2404 93.2966H7.63867L8.32989 87.9318C8.76802 84.5269 10.0253 81.3075 11.9628 78.5351L8.75713 77.7799L10.6865 74.5768C12.9697 70.7822 17.1252 68.8058 21.3051 69.1547L20.203 65.1174L23.6808 65.0356C24.3067 65.0384 26.824 65.1829 32.7564 67.8925C38.7678 70.6377 43.1872 78.6141 43.6716 79.5137L45.8296 83.5292H30.0759L26.0212 93.0895L13.5684 124.333Z"/>
    <path class="block-title__image-path" fill-rule="evenodd" clip-rule="evenodd" d="M73.8173 177.25L92.4861 182.673L92.5083 182.507C93.1725 177.704 90.6538 173.016 86.2475 170.846L85.55 170.503L89.2644 145.75L62.3005 131.984L49.6489 132.885L55.1901 148.375L74.7279 151.378L74.811 169.977L73.8173 177.25Z"/>
    <path fill-rule="evenodd" clip-rule="evenodd" d="M75.6277 175.072L88.2141 178.837C87.6724 176.27 86.0395 174.074 83.6772 172.879L81.3363 171.689L84.9401 146.962L61.092 134.421L52.9138 135.019L56.6543 145.791L76.2283 148.889L76.3195 169.85L75.6277 175.072ZM93.0378 185.543L90.1446 184.847L69.9459 178.805L71.1766 169.513L71.1069 153.352L52.8253 150.459L45.8296 130.316L62.1699 129.115L90.5629 144.05L86.9619 168.768C91.6033 171.618 94.1828 177.011 93.4427 182.535L93.0378 185.543Z"/>
    <path class="block-title__image-path" fill-rule="evenodd" clip-rule="evenodd" d="M62.6645 89.5073C66.0527 87.4572 66.1133 84.7256 65.7081 80.7826L65.6557 80.2805L60.5665 82.5403C57.0295 77.1101 49.2606 75.5704 43.8296 80.2446C39.9866 83.5501 39.074 89.1624 41.2795 93.7262L41.2961 93.7621C43.6118 98.5548 48.9215 101.375 54.0907 100.128C55.7034 99.7386 57.1177 99.035 58.3114 98.1161L58.5733 98.2486L58.8462 97.6636C61.2171 95.5859 62.5845 92.6059 62.6645 89.5073Z"/>
    <path fill-rule="evenodd" clip-rule="evenodd" d="M51.6856 79.7982C49.6821 79.7982 47.7544 80.5244 46.1576 81.8955C43.3434 84.3154 42.5761 88.483 44.295 92.0355C46.1115 95.794 50.1565 97.8371 53.944 96.9266C55.1153 96.6421 56.1835 96.1354 57.1188 95.4173L57.5173 95.0759C59.2796 93.5367 60.3261 91.3066 60.3858 88.9545L60.4237 87.5346L61.6383 86.8002C62.8421 86.0713 63.3924 85.3613 63.5172 83.871L59.952 85.4535L58.7455 83.6C57.4279 81.5812 55.2888 80.2263 52.8731 79.8822C52.4773 79.8253 52.0815 79.7982 51.6856 79.7982ZM52.1384 102.335C46.9845 102.335 42.023 99.2787 39.6291 94.3334C36.8718 88.6266 38.1678 81.9064 42.7686 77.9555C45.8322 75.3216 49.674 74.1781 53.6051 74.739C56.7501 75.1861 59.6077 76.6982 61.7169 78.9852L68.1397 76.1346L68.5626 80.1857C68.9612 84.0254 68.9991 87.6999 65.4773 90.4584C65.0815 93.5557 63.6283 96.4443 61.3645 98.6013L60.177 101.132L58.8865 100.482C57.737 101.157 56.4898 101.658 55.1613 101.978C54.1609 102.219 53.1442 102.335 52.1384 102.335Z"/>
    <path class="block-title__image-path" fill-rule="evenodd" clip-rule="evenodd" d="M52.5132 86.0765L61.1062 81.2944L52.5132 86.0765Z"/>
    <path fill-rule="evenodd" clip-rule="evenodd" d="M53.7794 88.9455L51.5586 84.3443L59.8403 80.3379L62.0611 84.9363L53.7794 88.9455Z"/>
    <path class="block-title__image-path" fill-rule="evenodd" clip-rule="evenodd" d="M58.2416 109.03C58.2416 113.785 54.3924 117.638 49.6486 117.638C44.9022 117.638 41.0557 113.785 41.0557 109.03C41.0557 104.276 44.9022 100.423 49.6486 100.423C54.3924 100.423 58.2416 104.276 58.2416 109.03Z"/>
    <path fill-rule="evenodd" clip-rule="evenodd" d="M49.6487 102.847C46.2457 102.847 43.4764 105.621 43.4764 109.03C43.4764 112.442 46.2457 115.213 49.6487 115.213C53.0517 115.213 55.821 112.442 55.821 109.03C55.821 105.621 53.0517 102.847 49.6487 102.847ZM49.6487 120.507C43.3304 120.507 38.1914 115.359 38.1914 109.03C38.1914 102.701 43.3304 97.5532 49.6487 97.5532C55.967 97.5532 61.106 102.701 61.106 109.03C61.106 115.359 55.967 120.507 49.6487 120.507Z"/>
    <path class="block-title__image-path" fill-rule="evenodd" clip-rule="evenodd" d="M53.4678 124.876L77.8479 116.681L82.111 125.597L57.4444 134.853L53.4678 124.876Z"/>
    <path fill-rule="evenodd" clip-rule="evenodd" d="M57.3837 126.412L59.3976 131.75L78.8815 124.03L76.8353 119.509L57.3837 126.412ZM56.4788 138.679L50.6035 123.118L79.5232 112.856L85.9301 127.009L56.4788 138.679Z"/>
    <path class="block-title__image-path" fill-rule="evenodd" clip-rule="evenodd" d="M49.1963 137.722L44.875 111.899L56.5423 112.197L60.1514 133.508L49.1963 137.722Z"/>
    <path fill-rule="evenodd" clip-rule="evenodd" d="M48.299 116.209L51.6701 134.672L58.024 132.433L55.0521 116.367L48.299 116.209ZM47.6018 141.548L42.0107 110.943L59.4539 111.349L63.9705 135.78L47.6018 141.548Z"/>
    <path class="block-title__image-path" fill-rule="evenodd" clip-rule="evenodd" d="M79.2471 116.794C85.2625 111.293 89.3437 114.36 90.2906 118.32C90.9595 121.126 91.0944 123.945 88.5291 124.728L83.5684 126.246L79.2471 116.794Z"/>
    <path fill-rule="evenodd" clip-rule="evenodd" d="M82.6855 117.099L85.0557 122.593L87.475 121.808C87.4913 121.808 87.8151 121.116 87.2328 118.535C86.9552 117.3 86.3075 116.364 85.5809 116.143C84.8734 115.923 83.8475 116.278 82.6855 117.099ZM81.714 130.071L75.4277 115.493L76.9462 114.024C81.401 109.704 85.0367 109.616 87.3117 110.31C90.1609 111.175 92.3243 113.743 93.0999 117.179C94.6946 124.271 91.9161 126.765 89.3064 127.608L81.714 130.071Z"/>
    <path fill-rule="evenodd" clip-rule="evenodd" d="M190.001 0L174.724 7.56612L177.985 10.9518L177.993 10.9604L181.254 14.3461L190.001 0Z"/>
    <path fill-rule="evenodd" clip-rule="evenodd" d="M117.438 82.0702C117.438 84.4475 115.514 86.374 113.141 86.374C110.768 86.374 108.845 84.4475 108.845 82.0702C108.845 79.6929 110.768 77.7664 113.141 77.7664C115.514 77.7664 117.438 79.6929 117.438 82.0702Z"/>
    <path class="block-title__image-path" fill-rule="evenodd" clip-rule="evenodd" d="M72.5635 151.112L83.066 143.461L72.5635 151.112Z"/>
    <path fill-rule="evenodd" clip-rule="evenodd" d="M74.5291 152.068L71.6084 147.844L82.0546 140.592L84.9752 144.816L74.5291 152.068Z"/>
    <path class="block-title__image-path" fill-rule="evenodd" clip-rule="evenodd" d="M86.885 154.938L75.4277 152.068L86.885 154.938Z"/>
    <path fill-rule="evenodd" clip-rule="evenodd" d="M85.6278 157.807L74.4731 154.6L75.7334 149.199L86.8852 152.406L85.6278 157.807Z"/>
    <path class="block-title__image-path" fill-rule="evenodd" clip-rule="evenodd" d="M50.6034 137.722L25.7793 160.676L50.6034 137.722Z"/>
    <path fill-rule="evenodd" clip-rule="evenodd" d="M28.3774 162.589L24.8247 158.811L48.9604 135.81L52.5132 139.587L28.3774 162.589Z"/>
  </symbol>
  <symbol id="icon-lighthouse" viewBox="0 0 39 40">
    <path d="M0 0.48999V39.29H38.8V0.48999H0ZM15.42 13.72H23.29V15H15.42V13.72ZM23.25 34.06C21.98 33.94 20.7 33.87 19.42 33.87C18.42 33.87 17.42 33.92 16.42 33.99L23.03 30.93L23.25 34.06ZM16.3 7.99999C16.3 7.19638 16.6192 6.42569 17.1875 5.85746C17.7557 5.28922 18.5264 4.96999 19.33 4.96999C20.1336 4.96999 20.9043 5.28922 21.4725 5.85746C22.0408 6.42569 22.36 7.19638 22.36 7.99999H16.3ZM16.74 9.99999H22.15V11.73H16.74V9.99999ZM22.26 17V17.19L16.3 20L16.46 17H22.26ZM16.26 22.31L22.44 19.31L22.58 23L15.96 26.11L16.26 22.31ZM15.93 28.43L22.74 25.16L22.96 28.79L15.66 32.16L15.93 28.43ZM19.51 35.91C22.9669 35.9025 26.4086 36.3668 29.74 37.29H8.97001C12.3724 36.343 15.8883 35.8653 19.42 35.87L19.51 35.91ZM36.89 37.33H35.42C32.2011 35.8403 28.7815 34.8296 25.27 34.33L24.21 17H25.29V11.72H24.1V9.88999C24.3803 9.78981 24.6251 9.60953 24.8038 9.37151C24.9826 9.13349 25.0876 8.84822 25.1057 8.55109C25.1238 8.25396 25.0542 7.95805 24.9057 7.70009C24.7571 7.44212 24.5361 7.23346 24.27 7.09999C24.0793 5.92863 23.4781 4.86332 22.574 4.09452C21.6699 3.32573 20.5218 2.90359 19.335 2.90359C18.1482 2.90359 17.0001 3.32573 16.096 4.09452C15.1919 4.86332 14.5907 5.92863 14.4 7.09999C14.1239 7.24184 13.8979 7.4648 13.7523 7.7389C13.6067 8.013 13.5485 8.32511 13.5855 8.63326C13.6226 8.94142 13.753 9.23086 13.9594 9.46267C14.1658 9.69449 14.4382 9.85757 14.74 9.92999V11.72H13.42V17H14.42L13.52 34.3C9.97182 34.7784 6.51621 35.7898 3.27 37.3H2V2.48999H36.8L36.89 37.33Z"/>
  </symbol>
  <symbol id="icon-roll" viewBox="0 0 42 42">
    <path fill-rule="evenodd" clip-rule="evenodd" d="M24.74 0.47L24.15 0.36H23.95C23.2883 0.248903 22.6204 0.178769 21.95 0.15H21.55C21.4004 0.134827 21.2497 0.134827 21.1 0.15H20.74C20.12 0 19.49 0 18.87 0C13.9156 0.0079335 9.16631 1.9796 5.66297 5.48294C2.15963 8.98627 0.187969 13.7355 0.180036 18.69C0.177923 19.3111 0.20796 19.932 0.270032 20.55V20.68C0.267922 24.5867 1.3773 28.4134 3.46862 31.7132C5.55994 35.0131 8.54689 37.6498 12.0807 39.3156C15.6144 40.9814 19.5492 41.6074 23.4255 41.1207C27.3017 40.6339 30.9595 39.0544 33.9717 36.5666C36.9839 34.0788 39.2262 30.7854 40.4367 27.0709C41.6472 23.3565 41.776 19.3743 40.808 15.5894C39.84 11.8045 37.8152 8.37313 34.97 5.69592C32.1249 3.01871 28.5768 1.20619 24.74 0.47ZM20.82 39.27C15.8913 39.2647 11.1659 37.3044 7.68077 33.8193C4.19561 30.3341 2.23533 25.6087 2.23003 20.68H1.23003L2.23003 20.54V20.42C1.97156 17.9459 2.26942 15.4453 3.1018 13.1011C3.93419 10.7569 5.28005 8.62844 7.04095 6.87138C8.80185 5.11431 10.9333 3.77308 13.2792 2.94581C15.6252 2.11854 18.1265 1.82614 20.6 2.09H21.93C22.51 2.09 23.1 2.18 23.69 2.27H23.87L24.37 2.36C28.9073 3.2399 32.9542 5.77842 35.7212 9.48042C38.4882 13.1824 39.777 17.7824 39.3361 22.3832C38.8953 26.9839 36.7564 31.2555 33.3368 34.3647C29.9171 37.4739 25.4619 39.1977 20.84 39.2L20.82 39.27ZM22.4799 2.53004C19.9298 2.53651 17.4231 3.19045 15.1947 4.43054C12.9664 5.67063 11.0895 7.45627 9.73992 9.62004C8.45677 11.4101 7.69836 13.5226 7.54992 15.72C7.46613 16.3466 7.42271 16.9779 7.41992 17.61V18V18.3V18.69C7.42257 22.4261 8.90789 26.0084 11.5497 28.6502C14.1915 31.2921 17.7738 32.7774 21.5099 32.78C22.1056 32.7797 22.7005 32.7363 23.2899 32.65C27.2155 32.4476 30.9067 30.7194 33.576 27.834C36.2454 24.9486 37.6818 21.1344 37.5787 17.2049C37.4757 13.2754 35.8413 9.54177 33.0244 6.80026C30.2074 4.05874 26.4307 2.52639 22.4999 2.53004H22.4799ZM29.3099 15.43V15.98V16.28V16.53C29.2281 19.1078 28.1466 21.5526 26.2942 23.3471C24.4418 25.1415 21.964 26.145 19.3849 26.145C16.8059 26.145 14.328 25.1415 12.4756 23.3471C10.6233 21.5526 9.54176 19.1078 9.45992 16.53V15.92C9.70258 14.0787 10.3331 12.3097 11.3099 10.73C12.2277 9.46413 13.4295 8.43106 14.8189 7.7138C16.2082 6.99655 17.7464 6.61508 19.3099 6.60004H19.7399H19.8299C20.2268 6.53599 20.6279 6.50256 21.0299 6.50004C23.2065 6.50268 25.2932 7.36851 26.8323 8.90761C28.3714 10.4467 29.2373 12.5334 29.2399 14.71V15.27V15.42L29.3099 15.43ZM23.0899 30.66C22.5598 30.7351 22.0253 30.7752 21.4899 30.78C19.4854 30.7802 17.5125 30.2811 15.7491 29.3279C13.9858 28.3746 12.4877 26.9972 11.3899 25.32C13.0932 26.8846 15.2156 27.9189 17.4974 28.2964C19.7792 28.674 22.1215 28.3784 24.238 27.4459C26.3545 26.5134 28.1534 24.9843 29.4147 23.0457C30.676 21.107 31.345 18.8429 31.3399 16.53V16.21V15.98V15.33V14.72C31.3335 12.1567 30.365 9.68912 28.6261 7.80577C26.8872 5.92241 24.5046 4.76051 21.9499 4.55004H22.4799C25.9126 4.52088 29.2189 5.84336 31.6845 8.23175C34.1502 10.6201 35.5773 13.8827 35.6574 17.3145C35.7375 20.7464 34.4642 24.072 32.1127 26.5728C29.7612 29.0737 26.5202 30.549 23.0899 30.68V30.66ZM16.7632 10.5346C18.0558 9.67094 19.5755 9.20996 21.13 9.20996C23.2138 9.21261 25.2115 10.0416 26.685 11.515C28.1584 12.9885 28.9874 14.9862 28.99 17.07C28.99 18.6245 28.529 20.1442 27.6654 21.4367C26.8017 22.7293 25.5741 23.7367 24.1379 24.3317C22.7017 24.9266 21.1213 25.0822 19.5966 24.7789C18.0719 24.4757 16.6714 23.7271 15.5722 22.6278C14.4729 21.5286 13.7243 20.1281 13.4211 18.6034C13.1178 17.0787 13.2734 15.4983 13.8683 14.0621C14.4632 12.6258 15.4707 11.3983 16.7632 10.5346ZM23.44 15.67C23.7751 15.4326 24.0381 15.1073 24.2 14.73C24.3069 14.5455 24.3729 14.3402 24.3936 14.128C24.4143 13.9158 24.3892 13.7016 24.32 13.5C23.9779 13.7323 23.7105 14.0588 23.55 14.44C23.4436 14.6247 23.3786 14.8305 23.3596 15.0428C23.3406 15.2552 23.368 15.4692 23.44 15.67ZM18.6008 22.3624C19.3909 22.738 20.2551 22.9319 21.13 22.93C22.6782 22.9194 24.1595 22.2977 25.2514 21.2001C26.3433 20.1026 26.9574 18.6181 26.96 17.07C26.9619 16.1449 26.7424 15.2329 26.32 14.41C26.2648 14.8026 26.1572 15.186 26 15.55C25.7091 16.2156 25.2424 16.7895 24.65 17.21C24.2612 17.4786 23.8025 17.628 23.33 17.64C23.061 17.6386 22.7952 17.5807 22.55 17.47C22.078 17.2336 21.7185 16.8202 21.55 16.32C21.2576 15.4298 21.3258 14.4604 21.74 13.62C22.0219 12.9546 22.4822 12.3801 23.07 11.96C23.2138 11.8656 23.3682 11.7884 23.53 11.73C22.7328 11.3697 21.865 11.1925 20.9903 11.2113C20.1156 11.2302 19.2562 11.4447 18.4753 11.8391C17.6943 12.2335 17.0115 12.7977 16.4771 13.4904C15.9427 14.1831 15.5702 14.9867 15.3868 15.8421C15.2035 16.6976 15.2141 17.5833 15.4178 18.4341C15.6214 19.285 16.013 20.0794 16.5638 20.7592C17.1146 21.4389 17.8106 21.9867 18.6008 22.3624Z"/>
  </symbol>
  <symbol id="icon-speedometer" viewBox="0 0 46 40">
    <path fill-rule="evenodd" clip-rule="evenodd" d="M41.91 39.21H4.66999C3.62677 39.2074 2.62718 38.7911 1.89045 38.0525C1.15372 37.3139 0.739987 36.3132 0.73999 35.27V4.19001C0.74263 3.14852 1.15753 2.15044 1.89398 1.414C2.63042 0.67755 3.6285 0.26265 4.66999 0.26001H41.91C42.9484 0.275431 43.9401 0.694125 44.6754 1.42755C45.4107 2.16097 45.8319 3.15163 45.85 4.19001V35.27C45.8345 36.3101 45.4144 37.3033 44.6789 38.0389C43.9433 38.7744 42.9501 39.1945 41.91 39.21ZM2.73999 35.27V8.00001H43.85V35.27C43.85 35.7845 43.6456 36.278 43.2818 36.6418C42.918 37.0056 42.4245 37.21 41.91 37.21H4.66999C4.15721 37.2074 3.66632 37.0018 3.30466 36.6383C2.943 36.2747 2.73998 35.7828 2.73999 35.27ZM8.23005 4.50992C8.23005 5.38805 7.51818 6.09992 6.64005 6.09992C5.76192 6.09992 5.05005 5.38805 5.05005 4.50992C5.05005 3.63179 5.76192 2.91992 6.64005 2.91992C7.51818 2.91992 8.23005 3.63179 8.23005 4.50992ZM11.7399 6.09992C12.618 6.09992 13.3299 5.38805 13.3299 4.50992C13.3299 3.63179 12.618 2.91992 11.7399 2.91992C10.8618 2.91992 10.1499 3.63179 10.1499 4.50992C10.1499 5.38805 10.8618 6.09992 11.7399 6.09992ZM39.86 31.6401H30.93V30.3701C30.93 28.3332 30.1208 26.3798 28.6806 24.9395C28.4533 24.7122 28.2133 24.5007 27.9621 24.3056C26.6645 27.5085 25.4239 30.5278 25.1699 31C24.8804 31.4659 24.4216 31.8015 23.8899 31.9362C23.3582 32.0709 22.7949 31.9943 22.3185 31.7224C21.8421 31.4505 21.4896 31.0046 21.3351 30.4783C21.1806 29.952 21.2361 29.3863 21.4899 28.9C21.7477 28.4556 23.7103 25.8678 25.8113 23.1298C24.9963 22.8414 24.1309 22.6901 23.25 22.6901C21.2131 22.6901 19.2597 23.4992 17.8194 24.9395C16.3791 26.3798 15.57 28.3332 15.57 30.3701L15.62 31.5801L14.62 31.6401H6.73999V30.3701C6.84631 26.0394 8.64137 21.9217 11.742 18.8964C14.8425 15.871 19.0029 14.1775 23.335 14.1775C26.1029 14.1775 28.8007 14.8688 31.1967 16.1572L31.2799 16.05L31.23 16.1751C32.5714 16.9003 33.8177 17.8129 34.928 18.8964C38.0286 21.9217 39.8237 26.0394 39.93 30.3701L39.86 31.6401ZM29.8894 23.249C29.5326 22.917 29.1534 22.6143 28.7555 22.3425C29.4453 20.632 30.0967 19.008 30.565 17.8384C31.5513 18.4041 32.4753 19.0874 33.3153 19.8796C36.0228 22.4331 37.6522 25.9247 37.87 29.6401H32.95C32.7742 27.1995 31.6807 24.916 29.8894 23.249ZM30.0936 17.5793C29.3176 18.5808 28.2411 19.9722 27.1111 21.4393C25.9156 20.9265 24.6186 20.6553 23.295 20.6553C20.848 20.6553 18.4919 21.582 16.7006 23.249C14.9093 24.916 13.8157 27.1995 13.64 29.6401H8.73999C8.95777 25.9247 10.5871 22.4331 13.2947 19.8796C16.0022 17.3261 19.5833 15.9038 23.305 15.9038C25.6899 15.9038 28.017 16.4879 30.0936 17.5793Z"/>
  </symbol>
</svg>
